<svg id="Error" xmlns="http://www.w3.org/2000/svg" viewBox="0 0 2048 2048"><defs><style>.cls-1{fill:#1d1d1b;}</style></defs><path class="cls-1" d="M1804.22,385c-488.43-108.31-535.9-342.51-780-385,0,122.61,0,271-.1,449.39h61.33A88.54,88.54,0,0,1,1174,537.94v632.9a88.54,88.54,0,0,1-88.55,88.55H962.55A88.54,88.54,0,0,1,874,1170.84V537.94a88.54,88.54,0,0,1,88.55-88.55h61.55c0-178.37-.1-326.78-.1-449.39C779.9,42.49,732.43,276.69,244,385,43.57,857.26,444.43,1944.56,1024,2048q.06-137.22.11-265.31,0,128.14.11,265.31C1603.79,1944.56,2004.65,857.26,1804.22,385ZM1024,1639.85a150,150,0,1,1,150-150A150,150,0,0,1,1024,1639.85Z"/></svg>