<svg id="Ebene_1" data-name="Ebene 1" xmlns="http://www.w3.org/2000/svg" viewBox="0 0 2048 2048"><defs><style>.cls-1{fill:#1d1d1b;}</style></defs><g id="Layer_58" data-name="Layer 58"><path class="cls-1" d="M1024,1705.26a135,135,0,1,1,135-135A135,135,0,0,1,1024,1705.26Z"/><rect class="cls-1" x="929" y="614.37" width="190" height="682" rx="60.04"/><path class="cls-1" d="M1828.18,1979.86H219.82a217.77,217.77,0,0,1-189.1-107.18A213.7,213.7,0,0,1,26.62,1659L830.81,182.4c58.7-106.7,192.78-145.61,299.48-86.91a220.34,220.34,0,0,1,86.9,86.91L2021.38,1659a213.7,213.7,0,0,1-4.1,213.68A217.77,217.77,0,0,1,1828.18,1979.86ZM1024,204.92a80.57,80.57,0,0,0-73,43L146.77,1723.86a76.48,76.48,0,0,0,0,79.19A81.25,81.25,0,0,0,215,1843.32H1828.18a81.25,81.25,0,0,0,68.27-40.27,76.48,76.48,0,0,0,0-79.19L1097.05,247.93A80.57,80.57,0,0,0,1024,204.92Z"/></g></svg>