<svg id="Ebene_1" data-name="Ebene 1" xmlns="http://www.w3.org/2000/svg" viewBox="0 0 2048 2048"><defs><style>.cls-1{fill:#1d1d1b;}</style></defs><path class="cls-1" d="M1024,74C499.33,74,74,499.33,74,1024s425.33,950,950,950,950-425.33,950-950S1548.67,74,1024,74Zm57,1330.38H967V777.11h114Zm-59.62-733.54c-40.17,0-68.69-31.1-68.69-70,0-40.18,29.81-71.28,71.28-71.28,42.77,0,70,31.1,70,71.28C1095.29,639.74,1066.77,670.84,1021.41,670.84Z"/><path class="cls-1" d="M2048,2048s-632.43-93.54-632.43-217.81-102-301.8,0-420.48,482.07-219.61,425,0C1728.26,1640,2048,2048,2048,2048Z"/></svg>